<svg width="365" height="105" viewBox="0 0 365 105" fill="none" xmlns="http://www.w3.org/2000/svg">
<path d="M315.8 50.8999H293.8V57.8999H315.8V50.8999Z" fill="white"/>
<path d="M108.4 46.8999L105.4 37.1999L102.7 46.8999H108.4V46.8999ZM100.1 57.8999H91.8L101.5 29.8999H109.8L119.5 57.8999H110.8L109.5 53.8999H101.5L100.1 57.8999Z" fill="white"/>
<path d="M129.8 50.8998H138.5C139.2 50.8998 139.5 50.8998 139.8 50.5998C140.1 50.2998 140.1 49.8998 140.1 49.2998C140.1 48.9998 140.1 48.5998 139.8 48.2998C139.5 47.9998 139.1 47.5998 138.5 47.5998H129.8V50.8998ZM129.8 37.2998V40.5998H138.5C139.2 40.5998 139.5 40.2998 139.8 39.8998C140.1 39.5998 140.1 39.1998 140.1 38.8998C140.1 38.1998 140.1 37.8998 139.8 37.5998C139.5 37.2998 139.1 37.2998 138.5 37.2998H129.8ZM138.4 29.8998C141.1 29.8998 143.1 30.8998 144.7 32.5998C146.4 34.2998 147.4 36.5998 147.4 38.8998C147.4 40.8998 146.7 42.5998 145.7 43.8998C146.7 45.5998 147.4 47.1998 147.4 49.1998C147.4 51.4998 146.4 53.8998 144.7 55.4998C143 57.1998 141 57.7998 138.4 57.7998H122.4V29.7998H138.4V29.8998Z" fill="white"/>
<path d="M156.8 37.2999H149.4V29.8999H171.8L168.1 37.2999H164.1V57.8999H156.8V37.2999Z" fill="white"/>
<path d="M180.4 39.2998C179.1 40.5998 178.7 42.2998 178.7 43.9998C178.7 45.9998 179 47.6998 180.4 48.9998C181.4 50.2998 182.7 50.9998 184.4 50.9998C185.7 50.9998 187.1 50.2998 188.4 48.9998C189.4 47.6998 190.1 45.9998 190.1 43.9998C190.1 42.2998 189.4 40.6998 188.4 39.2998C187.1 37.9998 185.7 37.2998 184.4 37.2998C182.8 37.2998 181.4 37.8998 180.4 39.2998ZM193.8 34.2998C196.1 36.9998 197.5 40.2998 197.5 43.9998C197.5 47.9998 196.2 51.2998 193.8 53.9998C191.1 56.6998 188.1 57.9998 184.5 57.9998C180.8 57.9998 177.8 56.6998 175.2 53.9998C172.5 51.2998 171.5 47.9998 171.5 43.9998C171.5 40.2998 172.5 36.9998 175.2 34.2998C177.9 31.5998 180.9 29.9998 184.5 29.9998C188.1 29.8998 191.1 31.5998 193.8 34.2998Z" fill="white"/>
<path d="M206.8 45.5999V57.8999H199.4V29.8999H209.8L215.1 45.5999L220.4 29.8999H230.8V57.8999H223.4V45.5999L219.1 57.8999H211.1L206.8 45.5999Z" fill="white"/>
<path d="M243.1 57.8999H234.8L244.4 43.8999L234.8 29.8999H243.1L248.8 37.8999L254.1 29.8999H262.4L243.1 57.8999Z" fill="white"/>
<path d="M270.4 40.6H281.7C282 40.6 282.4 40.3 282.7 39.9C283 39.6 283 39.2 283 38.9C283 38.2 283 37.9 282.7 37.6C282.4 37.3 282 37.3 281.7 37.3H265.4V30H281.7C284 30 286 31 288 32.7C289.7 34.4 290.3 36.7 290.3 39C290.3 41 290 42.7 288.6 44C289.9 45.7 290.3 47.3 290.3 49.3C290.3 51.6 289.6 54 288 55.6C286 57.3 284 57.9 281.7 57.9H265.4V50.9H281.7C282 50.9 282.4 50.9 282.7 50.6C283 50.3 283 49.9 283 49.3C283 49 283 48.6 282.7 48.3C282.4 48 282 47.6 281.7 47.6H270.4V40.6Z" fill="white"/>
<path d="M315.8 29.8999H293.8V37.1999H315.8V29.8999Z" fill="white"/>
<path d="M315.8 40.5999H293.8V47.5999H315.8V40.5999Z" fill="white"/>
<path d="M343.8 57.8999H336.4V42.5999L325.8 57.8999H318.8V29.8999H326.1V45.5999L336.8 29.8999H343.8V57.8999Z" fill="white"/>
<path d="M337.5 20.8999H325.8V27.8999H337.5V20.8999Z" fill="white"/>
<path d="M161.3 75.2999H159.3V69.5999L156.7 72.2999L154 69.5999V75.2999H152V64.8999L156.7 69.5999L161.3 64.8999V75.2999Z" fill="white"/>
<path d="M165.7 67.8998C165 68.5998 165 69.1998 165 70.1998C165 70.8998 165 71.8998 165.7 72.4998C166.4 73.1998 167.4 73.4998 168 73.4998C169 73.4998 169.7 73.1998 170.3 72.4998C171 71.7998 171.3 70.7998 171.3 70.1998C171.3 69.1998 171 68.4998 170.3 67.8998C169.6 67.1998 169 66.8998 168 66.8998C167.3 66.8998 166.3 67.2998 165.7 67.8998ZM172 73.8998C171 74.8998 169.7 75.1998 168 75.1998C166.7 75.1998 165.3 74.8998 164.3 73.8998C163.3 72.8998 163 71.5998 163 70.1998C163 68.4998 163.3 67.4998 164.3 66.4998C165.3 65.1998 166.6 64.7998 168 64.7998C169.7 64.7998 171 65.0998 172 66.4998C173 67.4998 173.3 68.4998 173.3 70.1998C173.3 71.5998 173 72.8998 172 73.8998Z" fill="white"/>
<path d="M182 64.8999V66.8999H179.7V75.2999H177.7V66.8999H175V64.8999H182Z" fill="white"/>
<path d="M186.7 67.8998C186 68.5998 185.7 69.1998 185.7 70.1998C185.7 70.8998 186 71.8998 186.7 72.4998C187.4 73.1998 188 73.4998 189 73.4998C190 73.4998 190.7 73.1998 191.3 72.4998C192 71.7998 192.3 70.7998 192.3 70.1998C192.3 69.1998 192 68.4998 191.3 67.8998C190.6 67.1998 190 66.8998 189 66.8998C188 66.8998 187.3 67.2998 186.7 67.8998ZM192.7 73.8998C191.7 74.8998 190.4 75.1998 189 75.1998C187.3 75.1998 186.3 74.8998 185.3 73.8998C184.3 72.8998 183.6 71.5998 183.6 70.1998C183.6 68.4998 184.3 67.4998 185.3 66.4998C186.3 65.1998 187.3 64.7998 189 64.7998C190.3 64.7998 191.7 65.0998 192.7 66.4998C193.7 67.4998 194.4 68.4998 194.4 70.1998C194.3 71.5998 193.7 72.8998 192.7 73.8998Z" fill="white"/>
<path d="M199.7 69.5999C200 69.5999 200 69.5999 200.4 69.2999C200.7 69.2999 201.1 68.5999 201.1 68.2999C201.1 67.5999 200.8 67.2999 200.4 66.9999H199.7H197.7V69.6999H199.7V69.5999ZM195.7 75.2999V64.8999H199.7C200.4 64.8999 200.7 64.8999 201.4 65.1999C201.7 65.4999 202.4 65.8999 202.4 66.1999C202.7 66.8999 203.1 67.4999 203.1 68.1999C203.1 68.8999 202.8 69.4999 202.4 69.8999C202.4 70.5999 201.7 70.8999 201.4 70.8999C200.7 71.1999 200.4 71.5999 199.7 71.5999H197.7V75.2999H195.7V75.2999Z" fill="white"/>
<path d="M213.7 64.8999H215.7V75.1999H213.7V64.8999ZM206.3 70.8999V73.5999H209C209.7 73.5999 210 73.2999 210 72.8999C210.3 72.8999 210.3 72.5999 210.3 72.1999C210.3 71.8999 210.3 71.4999 210 71.1999C210 70.8999 209.7 70.8999 209 70.8999H206.3ZM204.3 75.2999V64.8999H206.3V68.8999H209.6C210.3 68.8999 210.6 68.8999 210.9 69.1999C211.9 69.8999 212.2 70.4999 212.2 72.1999C212.2 73.4999 211.9 74.4999 210.9 74.8999C210.6 75.1999 210.2 75.1999 209.6 75.1999H204.3V75.2999Z" fill="white"/>
<path d="M223.7 67.8998C223 68.5998 223 69.1998 223 70.1998C223 70.8998 223 71.8998 223.7 72.4998C224.4 73.1998 225.4 73.4998 226 73.4998C227 73.4998 227.7 73.1998 228.3 72.4998C229 71.7998 229.3 70.7998 229.3 70.1998C229.3 69.1998 229 68.4998 228.3 67.8998C227.6 67.1998 227 66.8998 226 66.8998C225.3 66.8998 224.3 67.2998 223.7 67.8998ZM230 73.8998C228.7 74.8998 227.7 75.1998 226 75.1998C224.7 75.1998 223.3 74.8998 222.3 73.8998C221.3 72.8998 221 71.5998 221 70.1998C221 68.4998 221.3 67.4998 222.3 66.4998C223.3 65.1998 224.6 64.7998 226 64.7998C227.7 64.7998 228.7 65.0998 230 66.4998C231 67.4998 231.3 68.4998 231.3 70.1998C231.3 71.5998 231 72.8998 230 73.8998Z" fill="white"/>
<path d="M235 71.5999V75.2999H233V64.8999H235V68.5999L237.3 64.8999H239.3L236.3 70.2999L239.3 75.2999H237.3L235 71.5999Z" fill="white"/>
<path d="M248 64.8999V66.8999H245.3V75.2999H243.3V66.8999H240.7V64.8999H248Z" fill="white"/>
<path d="M254.3 69.6V66.9H252.6H252C251.3 67.2 251.3 67.6 251.3 68.2C251.3 68.5 251.3 69.2 252 69.2C252 69.5 252.3 69.5 252.7 69.5H254.3V69.6ZM251 65.3C251.3 65 252 65 252.7 65H256.4V75.3H254.4V71.6H252.7L251 75.3H249L250.7 71C249.7 70.3 249.4 69.7 249.4 68.3C249.3 66.9 249.7 65.9 251 65.3Z" fill="white"/>
<path d="M260 73.5999H262.7C263 73.5999 263.4 73.2999 263.7 72.8999C263.7 72.8999 264 72.5999 264 72.1999C264 71.8999 263.7 71.4999 263.7 71.1999C263.4 70.8999 263 70.8999 262.7 70.8999H260V73.5999ZM260 68.8999H263.3C263.6 68.8999 264 68.8999 264.3 69.1999C265.3 69.8999 265.6 70.4999 265.6 72.1999C265.6 73.4999 265.3 74.4999 264.3 74.8999C264 75.1999 263.6 75.1999 263.3 75.1999H258V64.8999H264.7V66.8999H260V68.8999Z" fill="white"/>
<path d="M271 69.5999C271 69.5999 271.3 69.5999 271.7 69.2999C272 69.2999 272.4 68.5999 272.4 68.2999C272.4 67.5999 272.1 67.2999 271.7 66.9999H271H269V69.6999H271V69.5999ZM267 75.2999V64.8999H271C271.3 64.8999 272 64.8999 272.7 65.1999L273.7 66.1999C274 66.8999 274.4 67.4999 274.4 68.1999C274.4 68.8999 274.1 69.4999 273.7 69.8999C273.4 70.5999 273 70.8999 272.7 70.8999C272 71.1999 271.4 71.5999 271 71.5999H269V75.2999H267V75.2999Z" fill="white"/>
<path d="M280.7 69.6V66.9H279H278.3C277.6 67.2 277.6 67.6 277.6 68.2C277.6 68.5 277.6 69.2 278.3 69.2C278.3 69.5 278.6 69.5 279 69.5H280.7V69.6ZM277.3 65.3C277.6 65 278.3 65 279 65H282.7V75.3H280.7V71.6H279L277.3 75.3H275.3L277 71C276 70.3 275.7 69.7 275.7 68.3C275.7 66.9 276 65.9 277.3 65.3Z" fill="white"/>
<path d="M144.8 64.8999H91.4V75.5999H144.8V64.8999Z" fill="white"/>
<path d="M344.1 64.8999H290.7V75.5999H344.1V64.8999Z" fill="white"/>
<path d="M39.2 55.2999L39 55.0999C36.8 55.4999 35.5 55.9999 35.5 55.9999C35.5 56.8999 35.2 57.8999 34.6 58.6999L41 56.8999C40.3 56.6999 39.7 56.1999 39.2 55.2999Z" fill="white"/>
<path d="M50 22.0999C31.8 22.0999 17 36.8999 17 55.2999C17 68.4999 24.8 79.8999 36 85.1999V72.3999L40.4 71.0999V86.9999C41.3 87.2999 42.2 87.4999 43.1 87.6999V70.3999L50.2 68.3999V88.2999C51.1 88.2999 52 88.1999 52.9 88.1999V68.3999L59.8 70.3999V86.8999C60.7 86.5999 61.6 86.2999 62.5 85.8999V70.9999L66.9 72.2999V83.5999C76.5 77.8999 83 67.2999 83 55.2999C83 36.8999 68.2 22.0999 50 22.0999ZM70.6 71.2999L51.5 65.9999L32.2 71.2999V66.3999C32.9 66.1999 51.5 61.0999 51.5 61.0999L70.6 66.3999V71.2999ZM74.2 60.1999V65.2999L51.6 59.0999L29 65.2999V60.1999L31.7 59.4999C31.1 59.1999 30.5 58.5999 30.4 57.0999C30.4 57.0999 26.9 57.9999 27.5 55.2999V53.6999C27.5 53.6999 27.3 52.7999 28.4 52.3999C28.4 52.3999 28 48.1999 30.8 47.4999C30.8 47.4999 30.1 43.9999 34.3 39.9999C34.3 39.9999 39.4 35.0999 47.4 34.8999C47.4 34.8999 54 34.6999 54.5 37.2999C54.5 37.2999 52.5 35.4999 46.3 35.9999C46.3 35.9999 40.5 36.3999 39.7 38.8999C39.7 38.8999 38.4 41.7999 42.6 41.5999C42.6 41.5999 44.8 41.5999 46.8 39.9999C49.2 37.9999 55.9 38.1999 57.2 38.4999C57.2 38.4999 60.1 38.6999 65 40.2999C65 40.2999 71.4 42.4999 73.9 45.3999C73.9 45.3999 71.2 45.3999 71.5 47.3999C71.5 47.3999 65.5 48.9999 58.2 47.3999C58.2 47.3999 55.1 42.9999 50.2 42.9999C50.2 42.9999 46.7 42.9999 49.5 46.0999C49.5 46.0999 50.4 48.7999 58.1 48.7999C58.1 48.7999 68.3 49.4999 71.6 48.0999C71.8 48.2999 72.7 48.7999 74.3 48.4999C74.3 48.4999 75.2 48.6999 74.5 49.5999C74.5 49.5999 58.3 51.5999 49.9 49.1999C49.9 49.1999 55.7 52.0999 66.7 51.5999C66.7 51.5999 74.7 51.3999 75.3 49.7999C75.3 49.7999 76.6 52.6999 72.2 53.9999C72.2 53.9999 71.8 58.3999 68 58.3999H67.9L74.2 60.1999Z" fill="white"/>
<path d="M60.4 53.8C56.2 53.1 52 53.1 48.2 53.6C48.1 54.2 47.8 54.7 47.4 55.2L51.5 54.1L61.8 56.9C61.8 56.8 61.7 56.8 61.7 56.7C61.8 56.6 60.4 55.8 60.4 53.8Z" fill="white"/>
<path d="M41.8 47.0999C40.7 47.0999 39.6 48.8999 39.6 51.0999C39.6 53.2999 40.7 55.0999 41.8 55.0999C43.1 55.0999 44 53.2999 44 51.0999C44 48.8999 43.1 47.0999 41.8 47.0999ZM42.3 52.8999H41.9C41.2 52.8999 40.6 51.9999 40.6 50.6999C40.6 49.3999 41.3 48.2999 41.9 48.2999C42.3 48.2999 42.8 48.6999 43 49.1999C42.8 48.9999 42.6 48.7999 42.1 48.7999C41.4 48.7999 41 49.6999 41 50.7999C40.9 51.9999 41.6 52.8999 42.3 52.8999Z" fill="white"/>
<path d="M32.3 51.4998C31.9 51.4998 31.4 52.7998 31.4 54.5998C31.4 56.3998 31.8 57.6998 32.3 57.6998C33 57.6998 33.4 56.3998 33.4 54.5998C33.4 52.8998 33 51.4998 32.3 51.4998ZM32.5 53.0998C32.3 53.0998 32.1 53.4998 32.1 54.3998C32.1 55.0998 32.3 55.4998 32.5 55.6998C32.1 55.6998 31.8 54.9998 31.8 54.1998C31.8 53.3998 32 52.6998 32.2 52.6998C32.4 52.6998 32.6 52.8998 32.6 53.0998H32.5V53.0998Z" fill="white"/>
<path d="M42 44.8999C42 44.8999 39.8 44.8999 37.8 46.1999C37.8 46.1999 33.8 48.1999 33.1 48.1999C33.1 48.1999 30.2 48.1999 30.4 49.4999C30.4 49.4999 33.5 47.4999 34.6 50.7999C34.6 50.7999 34.8 49.4999 33.5 48.5999L39.5 45.4999C39.5 45.4999 42.8 43.8999 44.8 46.3999C44.9 46.4999 44.5 45.2999 42 44.8999Z" fill="white"/>
</svg>
